<?xml version="1.0" encoding="utf-8"?>
<!-- Generator: Adobe Illustrator 24.3.0, SVG Export Plug-In . SVG Version: 6.00 Build 0)  -->
<svg version="1.1" id="Layer_1" xmlns="http://www.w3.org/2000/svg" xmlns:xlink="http://www.w3.org/1999/xlink" x="0px" y="0px"
	 viewBox="0 0 80 80" enable-background="new 0 0 80 80" xml:space="preserve">
<g>
	<rect x="22.615" y="15.997" fill="#DB5743" width="34.776" height="6"/>
	<path fill="#DB5743" d="M63.87,51.999c0.338-4.713,0.1-10.572-1.569-17.146H27.529c1.668,6.574,1.907,12.434,1.569,17.146H63.87z"
		/>
	<path fill="#F87670" d="M55.871,34.853h6.43c-1.028-4.051-2.595-8.367-4.913-12.855H22.615c2.319,4.488,3.885,8.805,4.913,12.855
		h5.076H55.871z"/>
	<path fill="#F87670" d="M61.343,51.999H36.601h-7.504c-0.532,7.426-2.482,12.004-2.482,12.004h34.773c0,0,1.95-4.578,2.482-12.004
		H61.343z"/>
	<g>
		<path fill="#FDDC85" d="M39.432,40.651c-2.464,0.162-4.591,1.17-4.625,3.182c-0.075,4.354,2.788,1.686,5.547,4.443
			c2.759,2.76,0.04,5.623,4.444,5.549c2.033-0.035,3.042-2.209,3.187-4.707c0.141-2.443-0.546-5.197-1.91-6.561
			C44.695,41.177,41.895,40.491,39.432,40.651z"/>
		<path fill="#FDDC85" d="M50.171,31.108c-1.349-0.59-2.83-0.324-3.753,1.455c-0.924,1.781-1.301,5.096,0.048,5.688
			c1.35,0.59,3.915-1.768,4.838-3.547C52.228,32.925,51.521,31.7,50.171,31.108z"/>
		<path fill="#FDDC85" d="M57.523,38.46c-0.592-1.35-1.816-2.057-3.596-1.133c-1.78,0.924-4.137,3.488-3.546,4.838
			c0.591,1.35,3.906,0.971,5.686,0.049C57.847,41.29,58.114,39.81,57.523,38.46z"/>
		<path fill="#FDDC85" d="M54.938,45.743c-1.591,0.127-4.229,1.357-4.356,2.629c-0.128,1.27,2.304,2.098,3.894,1.973
			c1.591-0.127,2.36-1.211,2.488-2.48C57.091,46.593,56.528,45.616,54.938,45.743z"/>
		<path fill="#FDDC85" d="M40.259,38.05c1.271-0.127,2.503-2.766,2.629-4.355c0.127-1.592-0.85-2.154-2.12-2.027
			c-1.271,0.129-2.354,0.898-2.48,2.488C38.161,35.747,38.989,38.179,40.259,38.05z"/>
	</g>
	<path fill="#E49A61" d="M23.633,24.062c-0.323-0.684-0.66-1.371-1.017-2.064c-12.013,23.25-4,42.006-4,42.006h4
		C22.615,64.003,16.438,49.29,23.633,24.062z"/>
	<path fill="#F1BB6B" d="M23.633,24.062c-7.195,25.229-1.017,39.941-1.017,39.941h4C26.615,64.003,34.156,46.347,23.633,24.062z"/>
	<g>
		<rect x="39.003" y="15.997" fill="#E49A61" width="2" height="6.002"/>
		<rect x="43.669" y="15.997" fill="#E49A61" width="2" height="6.002"/>
		<rect x="48.336" y="15.997" fill="#E49A61" width="2" height="6.002"/>
		<rect x="53.003" y="15.997" fill="#E49A61" width="2" height="6.002"/>
		<rect x="34.336" y="15.997" fill="#E49A61" width="2" height="6.002"/>
		<rect x="29.669" y="15.997" fill="#E49A61" width="2" height="6.002"/>
		<rect x="25.003" y="15.997" fill="#E49A61" width="2" height="6.002"/>
	</g>
</g>
</svg>
